<svg width="512" height="512" viewBox="0 0 512 512" fill="none" xmlns="http://www.w3.org/2000/svg">
<rect width="512" height="512" fill="white"/>
<path d="M45.1154 357.655C43.0906 352.88 41.1423 348.104 39.2321 343.329C24.8295 306.998 42.8996 274.22 59.0213 242.129L82.4016 195.674C87.1006 186.314 94.321 178.444 103.184 172.943L170.422 131.225L236.857 62.536C240.981 58.2566 246.244 55.2473 252.024 53.8639L297.256 42.9378C319.146 37.704 328.544 38.5445 335.612 48.5919C360.1 83.3567 376.489 111.971 398.303 146.621C410.184 165.493 437.614 208.854 439.333 211.719C444.605 220.582 442.466 227.994 442.275 238.156C441.817 261.574 445.943 285.107 454.5 306.921C457.06 313.416 460.001 319.834 461.338 326.672C462.561 332.823 460.918 371.905 459.658 385.123C458.626 395.858 433.259 435.933 424.167 440.785C414.158 446.134 339.967 473.411 323.578 478.071C307.189 482.732 236.131 466.496 199.227 460.842C176.42 457.365 153.574 453.851 130.767 450.374C110.978 447.356 91.303 449.648 80.2241 429.668C67.1968 406.288 55.5066 382.258 45.1154 357.655Z" fill="url(#paint0_linear_698_8)"/>
<path d="M130.729 450.336C153.536 453.812 176.381 457.327 199.189 460.804C211.07 462.637 226.504 465.541 242.511 468.521C231.738 455.761 215.654 440.632 204.881 427.872C202.551 425.122 200.182 422.257 199.342 418.742C198.463 414.998 199.456 411.139 200.488 407.434C203.773 395.285 204.614 382.105 207.899 369.957C187.537 374.694 140.623 383.71 136.765 382.602C132.486 381.379 129.01 378.285 125.686 375.267C101.503 353.185 82.5928 330.913 64.1024 303.98C61.9249 300.809 59.7091 297.523 58.9068 293.741C58.1428 290.188 58.7158 286.521 59.2889 282.968C60.6642 274.105 63.7204 249.54 66.1654 227.879L58.9832 242.129C42.8997 274.22 24.8296 306.998 39.2704 343.329C41.1806 348.143 43.1289 352.918 45.1537 357.655C55.5169 382.252 67.2116 406.266 80.186 429.592C91.2267 449.61 110.939 447.318 130.729 450.336Z" fill="url(#paint1_linear_698_8)"/>
<path d="M335.918 49.0121C331.219 43.4727 322.05 44.5423 312.423 53.3291L277.811 87.9411C275.671 90.0805 274.525 93.0221 274.716 96.0402L278.422 166.716C278.536 169.085 279.415 171.3 280.943 173.096C293.245 187.46 336.72 256.493 349.327 256.493C361.896 256.493 383.862 207.517 395.056 207.784C396.966 207.822 406.937 208.434 416.679 211.414C425.771 214.164 429.324 201.672 427.452 192.809C418.054 177.909 405.409 157.929 398.303 146.621C376.566 112.124 360.215 83.5859 335.918 49.0121Z" fill="url(#paint2_linear_698_8)"/>
<path d="M174.853 188.148C187.575 186.238 230.018 179.017 238.003 175.885C253.59 169.734 267.343 143.527 276.435 129.43C276.435 129.43 279.568 175.388 276.435 193.344C274.258 205.836 266.044 271.163 257.792 286.827L207.899 369.957L134.587 296.645C128.36 290.418 124.387 287.132 122.133 278.307C116.975 258.136 107.616 228.376 107.577 210.841C107.539 193.305 154.796 191.128 174.853 188.148Z" fill="url(#paint3_linear_698_8)"/>
<path d="M267.572 90.2333C262.682 84.3882 261.307 76.0981 262.988 68.6867C264.401 62.4978 277.238 50.5402 281.402 46.7581L252.024 53.8639C246.25 55.263 240.991 58.2699 236.857 62.536L170.422 131.225C170.422 131.225 234.756 104.407 267.572 90.2333Z" fill="url(#paint4_linear_698_8)"/>
<path d="M454.462 306.921C448.048 290.545 444.108 273.304 442.772 255.767C420.843 270.781 408.58 290.265 373.28 295.04C363.92 296.301 349.441 298.058 340.311 300.465C329.003 303.445 318.535 311.811 301.573 313.378C289.501 314.524 259.053 313.645 263.637 320.445C268.222 327.245 295.537 340.96 302.337 346.5C312.002 354.255 320.407 363.386 328.468 372.784C332.67 377.712 338.974 389.669 346.309 392.917C348.181 393.757 350.167 393.986 352.154 393.375C355.63 392.344 358.419 389.822 361.132 387.415C387.431 364.116 416.994 344.785 448.884 330.034C452.284 328.468 455.952 326.711 457.633 323.349C458.359 321.859 458.664 319.834 458.702 317.656C457.365 314.065 455.875 310.513 454.462 306.921Z" fill="url(#paint5_linear_698_8)"/>
<path d="M461.3 326.672C460.804 324.189 460.078 321.744 459.237 319.337C458.588 321.591 457.174 324.075 454.118 326.405C445.331 333.129 411.445 343.482 374.159 376.145C349.824 397.463 349.785 400.328 344.552 423.823C335.994 462.294 322.394 476.276 319.796 478.644C321.209 478.492 322.47 478.301 323.502 477.995C339.929 473.372 414.081 446.057 424.09 440.709C433.183 435.857 458.55 395.782 459.581 385.047C460.88 371.905 462.523 332.823 461.3 326.672Z" fill="url(#paint6_linear_698_8)"/>
<defs>
<linearGradient id="paint0_linear_698_8" x1="345.72" y1="91.3794" x2="169.726" y2="538.524" gradientUnits="userSpaceOnUse">
<stop stop-color="#48BCF6"/>
<stop offset="0.46" stop-color="#0090D8"/>
<stop offset="1" stop-color="#01527A"/>
</linearGradient>
<linearGradient id="paint1_linear_698_8" x1="44.8443" y1="469.961" x2="191.208" y2="307.212" gradientUnits="userSpaceOnUse">
<stop stop-color="#37474F"/>
<stop offset="0.612" stop-color="#42565F" stop-opacity="0.192"/>
<stop offset="0.757" stop-color="#455A64" stop-opacity="0"/>
</linearGradient>
<linearGradient id="paint2_linear_698_8" x1="391.324" y1="265.822" x2="296.675" y2="55.8696" gradientUnits="userSpaceOnUse">
<stop stop-color="#0791D6"/>
<stop offset="0.442" stop-color="#00A2F3"/>
<stop offset="1" stop-color="#02A9FC"/>
</linearGradient>
<linearGradient id="paint3_linear_698_8" x1="154.269" y1="410.395" x2="192.472" y2="203.143" gradientUnits="userSpaceOnUse">
<stop stop-color="#0090D8"/>
<stop offset="1" stop-color="#1A3645" stop-opacity="0"/>
</linearGradient>
<linearGradient id="paint4_linear_698_8" x1="170.429" y1="88.9955" x2="281.409" y2="88.9955" gradientUnits="userSpaceOnUse">
<stop stop-color="#0E88C5"/>
<stop offset="1" stop-color="#2EB1EF" stop-opacity="0"/>
</linearGradient>
<linearGradient id="paint5_linear_698_8" x1="344.364" y1="303.663" x2="475.611" y2="357.758" gradientUnits="userSpaceOnUse">
<stop stop-color="#0090D8" stop-opacity="0.63"/>
<stop offset="0.25" stop-color="#0090D8"/>
<stop offset="0.566" stop-color="#00A4D8" stop-opacity="0.97"/>
</linearGradient>
<linearGradient id="paint6_linear_698_8" x1="410.78" y1="482.262" x2="383.885" y2="376.172" gradientUnits="userSpaceOnUse">
<stop stop-color="#0090D8"/>
<stop offset="0.808" stop-color="#0090D8" stop-opacity="0.192"/>
<stop offset="1" stop-color="#0090D8" stop-opacity="0"/>
</linearGradient>
</defs>
</svg>
