{
  "asset": {
    "version": "2.0",
    "generator": "THREE.GLTFExporter r164"
  },
  "scenes": [
    {
      "name": "Scene",
      "nodes": [
        8
      ]
    }
  ],
  "scene": 0,
  "nodes": [
    {
      "matrix": [
        1,
        0,
        0,
        0,
        0,
        1,
        0,
        0,
        0,
        0,
        1,
        0,
        100.53687471787202,
        142.50032527379176,
        82.24531191352393,
        1
      ],
      "name": "Rock_01_1",
      "extras": {
        "name": "Rock_01"
      },
      "mesh": 0
    },
    {
      "matrix": [
        1,
        0,
        0,
        0,
        0,
        1,
        0,
        0,
        0,
        0,
        0.792375662818354,
        0,
        -56,
        -119.13183798654833,
        -79.66440175289512,
        1
      ],
      "name": "Rock_01",
      "extras": {
        "name": "Rock_01"
      },
      "children": [
        0
      ]
    },
    {
      "matrix": [
        1,
        0,
        0,
        0,
        0,
        1,
        0,
        0,
        0,
        0,
        1,
        0,
        0,
        0,
        -1,
        1
      ]
    },
    {
      "matrix": [
        0.025065423719893506,
        -0.029242994339875813,
        -0.9992580106337803,
        0,
        -0.7592566023652965,
        -0.6507913734559687,
        -5.551115123125783e-17,
        0,
        -0.6503084931772368,
        0.7586932420401094,
        -0.03851529805440723,
        0,
        0,
        0,
        0,
        1
      ],
      "name": "Directional_Light",
      "extras": {
        "name": "Directional Light"
      },
      "children": [
        2
      ],
      "extensions": {
        "KHR_lights_punctual": {
          "light": 0
        }
      }
    },
    {
      "matrix": [
        1,
        0,
        0,
        0,
        0,
        1,
        -6.123233995736766e-17,
        0,
        0,
        6.123233995736766e-17,
        1,
        0,
        0,
        1.665965795337991e-13,
        2050.5460456750293,
        1
      ],
      "camera": 0
    },
    {
      "matrix": [
        1,
        0,
        0,
        0,
        0,
        1,
        0,
        0,
        0,
        0,
        1,
        0,
        0,
        1,
        0,
        1
      ],
      "name": "Default_Ambient_Light",
      "extras": {
        "name": "Default Ambient Light"
      }
    },
    {
      "name": "Scene_1",
      "extras": {
        "name": "Scene 1"
      },
      "children": [
        1,
        3,
        4,
        5
      ]
    },
    {
      "matrix": [
        0.01,
        0,
        0,
        0,
        0,
        0.01,
        0,
        0,
        0,
        0,
        0.01,
        0,
        0,
        0,
        0,
        1
      ],
      "children": [
        6
      ]
    },
    {
      "name": "untitled.gltf",
      "children": [
        7
      ]
    }
  ],
  "bufferViews": [
    {
      "buffer": 0,
      "byteOffset": 0,
      "byteLength": 27648,
      "target": 34962,
      "byteStride": 12
    },
    {
      "buffer": 0,
      "byteOffset": 27648,
      "byteLength": 27648,
      "target": 34962,
      "byteStride": 12
    },
    {
      "buffer": 0,
      "byteOffset": 55296,
      "byteLength": 13824,
      "target": 34963
    }
  ],
  "buffers": [
    {
      "byteLength": 69120,
      "uri": "data:application/octet-stream;base64,"
    }
  ],
  "accessors": [
    {
      "bufferView": 0,
      "componentType": 5126,
      "count": 2304,
      "max": [
        187.69393920898438,
        208.28775024414062,
        204.760498046875
      ],
      "min": [
        -258.21710205078125,
        -238.33486938476562,
        -180.15452575683594
      ],
      "type": "VEC3"
    },
    {
      "bufferView": 1,
      "componentType": 5126,
      "count": 2304,
      "max": [
        0.9696051478385925,
        0.999925434589386,
        0.993744432926178
      ],
      "min": [
        -0.9922259449958801,
        -0.9983524084091187,
        -0.9971984028816223
      ],
      "type": "VEC3"
    },
    {
      "bufferView": 2,
      "componentType": 5125,
      "count": 3456,
      "max": [
        2303
      ],
      "min": [
        0
      ],
      "type": "SCALAR"
    }
  ],
  "materials": [
    {
      "pbrMetallicRoughness": {
        "metallicFactor": 1,
        "roughnessFactor": 1
      },
      "emissiveFactor": [
        0.001214107934117647,
        0.2874408377161099,
        0.6938717612856897
      ]
    }
  ],
  "meshes": [
    {
      "primitives": [
        {
          "mode": 4,
          "attributes": {
            "POSITION": 0,
            "NORMAL": 1
          },
          "extras": {
            "type": "SubdivGeometry",
            "parameters": {
              "width": 466.97589111328125,
              "height": 456.77980041503906,
              "depth": 395.0492706298828
            }
          },
          "indices": 2,
          "material": 0
        }
      ]
    }
  ],
  "extensions": {
    "KHR_lights_punctual": {
      "lights": [
        {
          "name": "Directional_Light",
          "color": [
            1,
            1,
            1
          ],
          "intensity": 0.7,
          "type": "directional"
        }
      ]
    }
  },
  "cameras": [
    {
      "type": "perspective",
      "perspective": {
        "aspectRatio": 1.764294049008168,
        "yfov": 0.7853981633974483,
        "zfar": 100000,
        "znear": 70
      }
    }
  ],
  "extensionsUsed": [
    "KHR_lights_punctual"
  ]
}